<svg width="104" height="104" viewBox="0 0 104 104" fill="none" xmlns="http://www.w3.org/2000/svg">
<circle cx="52" cy="52" r="51" fill="white" stroke="black" stroke-width="2"/>
<path d="M19.5 33.4675L22.2854 41.1531L22.4048 41.4828H22.7555H31.6066L24.4945 46.1155L24.1622 46.3319L24.2974 46.7048L27.0436 54.2826L19.7729 49.5466L19.5 49.3688L19.2271 49.5466L11.9564 54.2826L14.7026 46.7048L14.8378 46.3319L14.5055 46.1155L7.39336 41.4828H16.2445H16.5952L16.7146 41.1531L19.5 33.4675Z" fill="#28C247" stroke="black"/>
<path d="M84.5 23.4675L87.2854 31.1531L87.4048 31.4828H87.7555H96.6066L89.4945 36.1155L89.1622 36.3319L89.2974 36.7048L92.0436 44.2826L84.7729 39.5466L84.5 39.3688L84.2271 39.5466L76.9564 44.2826L79.7026 36.7048L79.8378 36.3319L79.5055 36.1155L72.3934 31.4828H81.2445H81.5952L81.7146 31.1531L84.5 23.4675Z" fill="#28C247" stroke="black"/>
<path d="M48.5 5.46746L51.2854 13.1531L51.4048 13.4828H51.7555H60.6066L53.4945 18.1155L53.1622 18.3319L53.2974 18.7048L56.0436 26.2826L48.7729 21.5466L48.5 21.3688L48.2271 21.5466L40.9564 26.2826L43.7026 18.7048L43.8378 18.3319L43.5055 18.1155L36.3934 13.4828H45.2445H45.5952L45.7146 13.1531L48.5 5.46746Z" fill="black" stroke="black"/>
<path d="M52 69.4966L55.57 79.5683L55.688 79.9012H56.0413H67.4663L58.2617 86.0314L57.9374 86.2474L58.0676 86.6146L61.607 96.5999L52.2772 90.3863L52 90.2017L51.7228 90.3863L42.393 96.5999L45.9324 86.6146L46.0626 86.2474L45.7383 86.0314L36.5338 79.9012H47.9587H48.312L48.43 79.5683L52 69.4966Z" fill="#FFDD28" stroke="black"/>
<path d="M62 49.618L63.7696 55.0643L63.8819 55.4098H64.2451H69.9717L65.3388 58.7758L65.0449 58.9894L65.1572 59.3348L66.9268 64.7812L62.2939 61.4152L62 61.2016L61.7061 61.4152L57.0732 64.7812L58.8428 59.3348L58.9551 58.9894L58.6612 58.7758L54.0283 55.4098H59.7549H60.1181L60.2304 55.0643L62 49.618Z" fill="#FFDD28" stroke="black"/>
</svg>
